<svg width="129" height="24" viewBox="0 0 129 24" fill="none" xmlns="http://www.w3.org/2000/svg">
<path d="M56 14C57.1046 14 58 13.1046 58 12C58 10.8954 57.1046 10 56 10V14ZM0.452994 12L12 23.547L23.547 12L12 0.452994L0.452994 12ZM56 12V10H12V12V14H56V12Z" fill="#BF9874"/>
<path d="M89 13.5C89.8284 13.5 90.5 12.8284 90.5 12C90.5 11.1716 89.8284 10.5 89 10.5L89 13.5ZM78.3397 12L87 20.6603L95.6603 12L87 3.33975L78.3397 12ZM89 12L89 10.5L87 10.5L87 12L87 13.5L89 13.5L89 12Z" fill="white"/>
<path d="M122 13.5C122.828 13.5 123.5 12.8284 123.5 12C123.5 11.1716 122.828 10.5 122 10.5V13.5ZM111.34 12L120 20.6603L128.66 12L120 3.33975L111.34 12ZM122 10.5H120V13.5H122V10.5Z" fill="white"/>
</svg>
