<svg width="374" height="110" viewBox="0 0 374 110" fill="none" xmlns="http://www.w3.org/2000/svg">
<path opacity="0.2" d="M16.5491 108.941C15.1896 108.523 15.1373 107.164 16.3923 104.863C17.6472 102.667 19.5819 99.1111 22.1963 94.196H21.2551C10.9019 94.196 4.83644 91.843 3.05863 87.137C1.28081 82.431 4.41813 76.104 12.4706 68.1562C16.4445 64.2868 20.7845 60.6266 25.4905 57.1755C30.3011 53.7245 34.8502 50.6917 39.1379 48.0773C43.4255 45.4629 47.0857 43.3713 50.1185 41.8026C53.1512 40.1294 54.8245 39.1882 55.1382 38.979C55.1382 38.979 55.6088 38.247 56.55 36.7829C57.4912 35.3188 58.6416 33.4887 60.0011 31.2926C61.4651 28.9919 63.0861 26.482 64.8639 23.763C66.6417 20.9394 68.3673 18.2204 70.0405 15.606C71.8183 12.887 73.4916 10.3771 75.0602 8.07641C76.6289 5.7757 77.9361 3.99788 78.9819 2.74296C79.8185 1.69718 80.446 1.01742 80.8643 0.703696C81.2826 0.285385 81.7532 0.0762295 82.2761 0.0762295C83.2173 0.0762295 83.7401 0.442249 83.8447 1.17429C83.9493 1.5926 83.897 2.01091 83.6879 2.42922C83.4787 2.74295 82.8512 3.63186 81.8055 5.09595C80.8643 6.45546 79.3479 8.5993 77.2563 11.5275C75.2694 14.4556 72.4981 18.6387 68.9424 24.0768C68.4195 24.9134 67.7398 25.9592 66.9032 27.2141C66.1711 28.469 65.3868 29.7239 64.5502 30.9789C63.609 32.5475 62.6155 34.1162 61.5697 35.6849C61.8835 35.5803 63.1907 34.9528 65.4914 33.8025C67.8967 32.6521 70.9817 31.2926 74.7465 29.7239C78.6158 28.0507 83.0604 26.2729 88.0801 24.3905C93.0998 22.4035 98.4333 20.5211 104.08 18.7433C109.728 16.9655 115.584 15.3968 121.649 14.0373C127.715 12.5732 133.676 11.5797 139.532 11.0569C140.369 10.9523 141.153 10.9 141.885 10.9C142.722 10.7954 143.558 10.7431 144.395 10.7431C146.591 10.7431 148.578 10.9523 150.356 11.3706C152.238 11.6843 153.702 12.2595 154.748 13.0961C155.899 13.9327 156.526 15.0308 156.631 16.3903C156.735 17.7498 156.16 19.4231 154.905 21.41C154.487 22.1421 153.336 23.5539 151.454 25.6454C149.572 27.737 147.532 29.9331 145.336 32.2338C143.245 34.4299 141.205 36.4169 139.218 38.1947C137.232 39.868 135.82 40.7046 134.983 40.7046C134.46 40.7046 134.042 40.4954 133.728 40.0771C133.414 39.5542 133.414 38.979 133.728 38.3516C133.937 37.9333 135.14 36.7306 137.336 34.7437C139.532 32.6521 141.833 30.4037 144.238 27.9984C146.748 25.5931 148.892 23.2924 150.67 21.0963C152.552 18.7956 153.232 17.2269 152.709 16.3903C152.291 15.6583 151.349 15.1877 149.885 14.9785C148.421 14.7694 146.748 14.6648 144.866 14.6648C142.983 14.6648 141.101 14.7171 139.218 14.8216C137.441 14.9262 136.133 15.0831 135.297 15.2923C129.336 16.0243 123.27 17.2269 117.1 18.9002C111.035 20.4688 105.126 22.2467 99.3745 24.2336C93.7273 26.116 88.3938 28.103 83.3741 30.1945C78.3544 32.1815 73.9621 34.0639 70.1974 35.8417C66.4326 37.515 63.3998 38.9268 61.0991 40.0771C58.903 41.2275 57.7526 41.8549 57.6481 41.9595C57.5435 42.0641 56.7592 43.319 55.2951 45.7243C53.831 48.1296 52.0009 51.11 49.8048 54.6657C47.7132 58.2213 45.4125 62.0384 42.9026 66.1169C40.4974 70.1954 38.2489 74.0125 36.1574 77.5681C34.0658 81.1238 32.288 84.1042 30.8239 86.5095C29.4644 88.9148 28.7847 90.1697 28.7847 90.2743C33.4907 89.9606 37.6215 89.6468 41.1771 89.3331C44.7327 88.9148 48.0792 88.5488 51.2165 88.235C54.3539 87.8167 57.4389 87.3461 60.4717 86.8232C63.5044 86.3004 66.8509 85.7252 70.5111 85.0977C74.2759 84.3657 78.5113 83.529 83.2173 82.5879C88.0278 81.6467 93.675 80.6009 100.159 79.4505H100.629C101.466 79.4505 101.78 79.9211 101.571 80.8623C101.361 81.8035 100.995 82.3787 100.473 82.5879C99.9496 82.797 98.381 83.2153 95.7666 83.8428C93.2567 84.4702 90.2239 85.15 86.6683 85.882C83.2173 86.5095 79.557 87.1893 75.6877 87.9213C71.8183 88.6533 68.2627 89.2808 65.0208 89.8037C58.4324 90.8495 52.7852 91.6861 48.0792 92.3136C43.3732 92.8364 39.4516 93.2548 36.3143 93.5685C33.1769 93.7776 30.8239 93.9345 29.2553 94.0391C27.6866 94.0391 26.7454 94.0914 26.4317 94.196C26.3271 94.3005 25.8565 95.0849 25.0199 96.5489C24.2879 97.9085 23.0329 100.209 21.2551 103.451C20.1048 105.543 19.2681 107.007 18.7452 107.843C18.3269 108.68 17.804 109.098 17.1766 109.098C17.072 109.098 16.9674 109.046 16.8629 108.941C16.7583 108.941 16.6537 108.941 16.5491 108.941ZM24.3924 90.4312C28.8893 82.9016 33.3338 75.4766 37.7261 68.1562C42.1183 60.8357 46.6151 53.2539 51.2165 45.4106C51.3211 45.2014 50.3276 45.7243 48.2361 46.9792C46.1445 48.1296 43.4778 49.7505 40.2359 51.8421C37.0986 53.9336 33.6475 56.3389 29.8827 59.0579C26.118 61.7769 22.5623 64.5482 19.2158 67.3718C15.8694 70.1954 13.0458 73.019 10.7451 75.8426C8.44437 78.5616 7.18944 81.0192 6.98028 83.2153C6.66655 85.4114 7.71232 87.1893 10.1176 88.5488C12.4183 89.8037 16.5491 90.4312 22.51 90.4312H24.3924ZM93.4307 67.3718C91.862 67.0581 91.13 66.1169 91.2346 64.5482C91.3392 62.875 91.8098 61.0972 92.6464 59.2148C93.3784 57.3324 94.3196 55.6069 95.47 54.0382C96.6203 52.365 97.4569 51.4238 97.9798 51.2146C98.189 51.11 98.4504 51.0577 98.7642 51.0577C99.8099 51.0577 100.333 51.5806 100.333 52.6264C100.333 53.2539 99.9668 54.0382 99.2348 54.9794C98.5027 55.816 97.5615 57.3847 96.4112 59.6854C96.202 60.2083 95.9406 60.888 95.6268 61.7246C95.3131 62.5613 95.1562 63.0842 95.1562 63.2933C95.1562 63.5025 95.9406 63.0842 97.5092 62.0384C99.0779 60.9926 100.803 59.79 102.686 58.4305C104.568 57.0709 106.294 55.816 107.862 54.6657C109.536 53.5153 110.372 52.9401 110.372 52.9401C111.732 53.2539 112.464 53.7768 112.568 54.5088C112.673 55.1363 112.359 55.816 111.627 56.5481C108.699 58.7442 106.241 60.522 104.254 61.8815C102.268 63.241 100.594 64.3391 99.2348 65.1757C97.9798 66.0123 96.9863 66.5875 96.2543 66.9012C95.4177 67.215 94.6856 67.3718 94.0582 67.3718H93.4307ZM102.372 47.6067C101.64 47.293 101.169 46.8746 100.96 46.3518C100.856 45.7243 101.065 45.1491 101.588 44.6262C102.006 44.2079 102.477 43.9988 103 43.9988C104.045 43.9988 104.621 44.4694 104.725 45.4106C104.934 46.038 104.83 46.6132 104.411 47.1361C103.993 47.5544 103.522 47.7636 103 47.7636C102.895 47.7636 102.79 47.7636 102.686 47.7636C102.581 47.659 102.477 47.6067 102.372 47.6067ZM121.015 61.8815C122.583 60.8357 124.1 59.79 125.564 58.7442C127.028 57.5938 128.387 56.6004 129.642 55.7637C130.897 54.8225 131.943 54.0905 132.78 53.5676C133.721 52.9401 134.401 52.6264 134.819 52.6264C135.551 52.6264 136.126 52.8878 136.544 53.4107C136.963 53.9336 137.12 54.5088 137.015 55.1363C137.015 55.3454 136.858 55.7114 136.544 56.2343C136.335 56.7572 136.074 57.2801 135.76 57.803C135.551 58.2213 135.342 58.6396 135.133 59.0579C134.923 59.4762 134.819 59.7377 134.819 59.8423C134.819 59.8423 134.923 59.79 135.133 59.6854C135.342 59.5808 135.812 59.3194 136.544 58.9011C137.381 58.4827 138.584 57.803 140.152 56.8618C141.721 55.9206 143.917 54.6134 146.741 52.9401C148.519 53.463 149.303 54.0905 149.094 54.8225C148.989 55.45 148.519 56.0252 147.682 56.5481C145.172 58.1167 142.662 59.7377 140.152 61.4109C137.747 62.9796 135.708 63.7639 134.035 63.7639H133.564C132.727 63.6593 132.048 63.241 131.525 62.509C131.002 61.6724 130.793 60.6789 130.897 59.5285C130.479 59.9468 129.799 60.522 128.858 61.254C127.917 61.9861 126.923 62.7181 125.878 63.4502C124.832 64.1822 123.786 64.8097 122.74 65.3326C121.694 65.8555 120.858 66.1169 120.23 66.1169C118.453 66.1169 117.407 65.2803 117.093 63.607C116.988 62.6658 117.145 61.5678 117.564 60.3128C117.982 59.0579 118.453 57.9076 118.975 56.8618C119.603 55.7114 120.178 54.718 120.701 53.8813C121.224 52.9401 121.538 52.4173 121.642 52.3127L120.23 53.4107C116.884 56.1297 114.269 58.4827 112.387 60.4697C110.609 62.3521 109.302 63.9208 108.465 65.1757C107.524 66.4306 106.897 67.3718 106.583 67.9993C106.165 68.5222 105.799 68.7836 105.485 68.7836C105.276 68.7836 105.067 68.7313 104.857 68.6268C104.648 68.5222 104.387 68.3653 104.073 68.1562C103.655 67.947 103.289 67.7379 102.975 67.5287C102.661 67.215 102.557 66.8489 102.661 66.4306C102.661 66.0123 103.132 65.0188 104.073 63.4502C104.91 61.7769 105.903 59.9991 107.054 58.1167C108.099 56.2343 109.145 54.5088 110.191 52.9401C111.237 51.3715 111.916 50.4826 112.23 50.2734C112.544 49.9597 112.91 49.8028 113.328 49.8028C113.747 49.8028 114.165 49.9597 114.583 50.2734C115.001 50.5871 115.211 50.9532 115.211 51.3715C115.211 51.7898 115.158 52.2081 115.054 52.6264C115.681 52.1035 116.518 51.4238 117.564 50.5871C118.714 49.6459 119.864 48.757 121.015 47.9204C122.27 46.9792 123.42 46.1949 124.466 45.5674C125.511 44.94 126.348 44.6262 126.976 44.6262C128.335 44.6262 129.119 45.306 129.329 46.6655C129.433 47.1884 129.276 47.7636 128.858 48.391C128.544 49.0185 127.812 50.2211 126.662 51.9989C125.407 53.8813 124.413 55.3977 123.681 56.5481C122.949 57.5938 122.426 58.4827 122.113 59.2148C121.799 59.8423 121.59 60.3651 121.485 60.7835C121.381 61.2018 121.224 61.5678 121.015 61.8815ZM166.289 101.569C168.485 99.8954 171.152 97.3856 174.289 94.0391C177.322 90.6926 180.668 86.8755 184.329 82.5879C187.989 78.3002 191.806 73.6988 195.78 68.7836C199.754 63.7639 203.675 58.7442 207.545 53.7245C211.519 48.7048 215.336 43.8419 218.996 39.1359C222.761 34.3254 226.212 30.0377 229.349 26.2729C232.486 22.5081 235.205 19.3708 237.506 16.8609C239.911 14.2465 241.742 12.6255 242.997 11.9981C243.624 11.6843 244.251 11.5275 244.879 11.5275C245.716 11.5275 246.343 11.8412 246.761 12.4687C247.598 13.4099 247.702 15.4491 247.075 18.5864C246.552 21.6192 245.82 25.4886 244.879 30.1945C243.938 34.9005 242.997 40.2863 242.055 46.3518C241.114 52.4173 240.696 58.9011 240.8 65.8032C240.8 67.7901 240.905 70.1954 241.114 73.019C241.428 75.738 241.898 78.3525 242.526 80.8623C243.153 83.3722 243.99 85.516 245.036 87.2938C246.186 89.0717 247.65 89.9606 249.428 89.9606C251.833 89.9606 254.657 88.2873 257.899 84.9408C261.141 81.4898 264.539 77.1498 268.095 71.921C271.755 66.5875 275.416 60.7312 279.076 54.3519C282.736 47.9727 286.135 41.7503 289.272 35.6849C292.514 29.6194 295.285 24.129 297.586 19.2139C299.991 14.1942 301.717 10.534 302.763 8.23327C302.972 7.71038 303.338 6.82147 303.861 5.56654C304.383 4.31162 305.063 3.68415 305.9 3.68415C306.318 3.68415 306.736 3.84102 307.155 4.15475C307.364 4.57306 307.416 5.04365 307.312 5.56654C307.207 6.08943 306.736 7.44894 305.9 9.64507C304.959 12.2595 303.338 15.972 301.037 20.7826C298.736 25.5931 296.07 30.9266 293.037 36.7829C290.004 42.5347 286.71 48.4956 283.154 54.6657C279.703 60.7312 276.2 66.4306 272.644 71.7641C269.089 76.993 265.638 81.5421 262.291 85.4114C258.945 89.1762 256.016 91.5815 253.507 92.6273C252.356 93.1502 251.101 93.4116 249.742 93.4116C246.604 93.4116 244.095 91.9998 242.212 89.1762C240.33 86.3526 239.023 83.2153 238.291 79.7643C237.245 74.2217 236.879 67.2673 237.192 58.9011C237.715 50.1165 238.657 42.3255 240.016 35.528C241.48 28.7305 242.735 22.2467 243.781 16.0766C243.572 16.2857 243.363 16.4949 243.153 16.704C242.944 16.8086 242.474 17.2269 241.742 17.959C241.01 18.691 239.911 19.8937 238.447 21.5669C236.983 23.1356 234.839 25.5931 232.016 28.9396C229.297 32.2861 225.794 36.6261 221.506 41.9595C217.218 47.293 211.937 53.9859 205.662 62.0384C201.27 67.4764 197.871 71.7641 195.466 74.9014C193.165 77.9342 191.283 80.3394 189.819 82.1173C187.727 84.7317 185.531 87.4507 183.23 90.2743C181.034 92.9933 178.891 95.5032 176.799 97.8039C174.603 100 172.564 101.778 170.681 103.137C168.799 104.601 167.178 105.333 165.818 105.333C165.295 105.333 164.929 105.281 164.72 105.177C163.675 104.863 163.047 104.131 162.838 102.98C162.524 101.935 162.472 100.732 162.681 99.3725C162.89 98.013 163.256 96.6535 163.779 95.294C164.197 93.8299 164.616 92.575 165.034 91.5292C166.707 87.137 169.008 82.1695 171.936 76.6269C174.864 71.0843 178.106 65.3849 181.662 59.5285C185.322 53.6722 189.191 47.8681 193.27 42.1164C197.348 36.26 201.427 30.9266 205.505 26.116C206.551 24.8611 207.858 23.2924 209.427 21.41C211.1 19.5276 212.826 17.6975 214.604 15.9197C216.486 14.0373 218.316 12.4687 220.094 11.2137C221.976 9.9588 223.65 9.38363 225.114 9.4882C226.264 9.59278 227.048 9.9588 227.467 10.5863C227.885 11.2137 227.99 11.8412 227.78 12.4687C227.362 12.9915 226.892 13.253 226.369 13.253H225.271C224.539 13.253 224.016 13.3576 223.702 13.5667C221.401 14.6125 218.421 17.1224 214.761 21.0963C211.205 24.9657 207.336 29.6194 203.152 35.0574C199.074 40.4954 194.891 46.4563 190.603 52.9401C186.42 59.3194 182.551 65.594 178.995 71.7641C175.544 77.9342 172.668 83.6859 170.367 89.0194C167.962 94.2482 166.603 98.4313 166.289 101.569ZM289.781 51.0577C291.558 49.6982 293.232 49.0185 294.8 49.0185C296.892 49.0185 298.147 50.0643 298.565 52.1558C299.088 54.1428 298.095 56.2866 295.585 58.5873C294.748 59.4239 293.911 59.9991 293.075 60.3128C292.343 60.6266 291.663 60.7835 291.036 60.7835C289.99 60.7835 289.205 60.5743 288.683 60.156C288.16 59.6331 287.898 59.4239 287.898 59.5285C287.794 59.6331 287.689 59.9991 287.584 60.6266C287.375 61.1495 287.271 61.6201 287.271 62.0384C287.794 62.0384 288.735 61.8815 290.094 61.5678C291.454 61.254 293.389 60.4697 295.898 59.2148C297.676 58.2736 299.14 57.5415 300.291 57.0187C301.441 56.3912 302.382 55.8683 303.114 55.45C303.951 54.9271 304.683 54.5088 305.31 54.1951C305.938 53.7768 306.618 53.3585 307.35 52.9401C308.186 53.1493 308.761 53.463 309.075 53.8813C309.389 54.1951 309.546 54.5611 309.546 54.9794C309.546 55.2931 309.441 55.6069 309.232 55.9206C309.023 56.1298 308.814 56.2866 308.605 56.3912C307.35 57.1232 305.781 58.0644 303.899 59.2148C302.121 60.2606 300.238 61.3063 298.251 62.3521C296.264 63.2933 294.33 64.1299 292.447 64.862C290.565 65.4894 288.996 65.8032 287.741 65.8032C287.114 65.8032 286.643 65.7509 286.33 65.6463C284.865 65.228 284.029 64.4437 283.82 63.2933C283.506 62.0384 283.611 60.6789 284.133 59.2148C284.552 57.6461 285.284 56.1298 286.33 54.6657C287.375 53.2016 288.526 51.9989 289.781 51.0577ZM290.722 57.0187C290.826 57.2278 291.245 57.1232 291.977 56.7049C292.813 56.2866 293.493 55.6592 294.016 54.8225C294.957 53.463 295.166 52.7833 294.643 52.7833C293.807 52.7833 292.657 53.4107 291.192 54.6657C290.879 54.9794 290.722 55.2931 290.722 55.6069C290.826 55.9206 290.826 56.2343 290.722 56.5481C290.722 56.7572 290.722 56.9141 290.722 57.0187ZM304.84 59.9991C305.572 59.4762 306.095 59.1102 306.408 58.9011C306.618 58.6919 306.774 58.4305 306.879 58.1167C306.879 57.6984 306.931 57.1232 307.036 56.3912C307.036 55.5546 307.14 54.2996 307.35 52.6264C307.559 51.8944 307.716 51.1623 307.82 50.4303C308.029 49.5937 308.657 49.1754 309.703 49.1754H310.173C311.01 49.3845 311.376 49.8551 311.271 50.5871C311.271 51.3192 311.219 52.1035 311.114 52.9401L310.801 55.45C314.252 53.2539 316.762 51.6852 318.33 50.744C319.899 49.6982 321.102 49.1754 321.938 49.1754C322.147 49.1754 322.461 49.2799 322.879 49.4891C323.193 49.8028 323.35 50.2211 323.35 50.744C323.455 51.1623 323.402 51.5283 323.193 51.8421C323.089 51.9467 322.879 52.1035 322.566 52.3127C322.252 52.5218 321.677 52.9401 320.84 53.5676C320.004 54.0905 318.749 54.9271 317.075 56.0775C315.402 57.1232 313.154 58.6396 310.33 60.6266C310.226 61.9861 310.226 63.2933 310.33 64.5482C310.435 65.6986 310.435 66.4829 310.33 66.9012C310.226 67.8424 309.755 68.313 308.918 68.313C308.395 68.313 307.925 68.1039 307.507 67.6856C306.984 67.1627 306.722 66.4306 306.722 65.4894C306.618 64.4437 306.565 63.7639 306.565 63.4502C306.461 63.5548 306.199 63.8162 305.781 64.2345C305.363 64.5482 304.892 64.9665 304.369 65.4894C303.114 66.4306 302.278 66.9012 301.859 66.9012H301.389C300.761 66.6921 300.395 66.2738 300.291 65.6463C300.186 64.9143 300.395 64.2345 300.918 63.607C301.127 63.3979 301.65 62.9273 302.487 62.1952C303.219 61.3586 304.003 60.6266 304.84 59.9991ZM312.125 79.9211C311.603 80.5486 311.027 80.8623 310.4 80.8623C309.877 80.8623 309.459 80.6009 309.145 80.078C308.727 79.5551 308.622 78.9276 308.831 78.1956C308.831 78.1956 309.929 76.4178 312.125 72.8621C314.217 69.3065 316.884 64.862 320.126 59.5285C323.263 54.1951 326.714 48.4433 330.479 42.2732C334.244 36.1032 337.747 30.3514 340.989 25.018C344.335 19.6845 347.107 15.24 349.303 11.6843C351.603 8.02411 352.858 6.14172 353.068 6.03714C353.486 5.82799 353.8 5.72341 354.009 5.72341C354.532 5.72341 355.002 5.98486 355.421 6.50774C355.839 6.92606 355.839 7.55352 355.421 8.39013L312.125 79.9211ZM332.521 51.0577C334.298 49.6982 335.972 49.0185 337.54 49.0185C339.632 49.0185 340.887 50.0643 341.305 52.1558C341.828 54.1428 340.834 56.2866 338.325 58.5873C337.488 59.4239 336.651 59.9991 335.815 60.3128C335.083 60.6266 334.403 60.7835 333.775 60.7835C332.73 60.7835 331.945 60.5743 331.422 60.156C330.9 59.6331 330.638 59.4239 330.638 59.5285C330.534 59.6331 330.429 59.9991 330.324 60.6266C330.115 61.1495 330.011 61.6201 330.011 62.0384C330.534 62.0384 331.475 61.8815 332.834 61.5678C334.194 61.254 336.128 60.4697 338.638 59.2148C340.416 58.2736 341.88 57.5415 343.031 57.0187C344.181 56.3912 345.122 55.8683 345.854 55.45C346.691 54.9271 347.423 54.5088 348.05 54.1951C348.678 53.7768 349.357 53.3585 350.09 52.9401C350.926 53.1493 351.501 53.463 351.815 53.8813C352.129 54.1951 352.286 54.5611 352.286 54.9794C352.286 55.2931 352.181 55.6069 351.972 55.9206C351.763 56.1298 351.554 56.2866 351.344 56.3912C350.09 57.1232 348.521 58.0644 346.638 59.2148C344.861 60.2606 342.978 61.3063 340.991 62.3521C339.004 63.2933 337.07 64.1299 335.187 64.862C333.305 65.4894 331.736 65.8032 330.481 65.8032C329.854 65.8032 329.383 65.7509 329.069 65.6463C327.605 65.228 326.769 64.4437 326.56 63.2933C326.246 62.0384 326.35 60.6789 326.873 59.2148C327.292 57.6461 328.024 56.1298 329.069 54.6657C330.115 53.2016 331.266 51.9989 332.521 51.0577ZM333.462 57.0187C333.566 57.2278 333.985 57.1232 334.717 56.7049C335.553 56.2866 336.233 55.6592 336.756 54.8225C337.697 53.463 337.906 52.7833 337.383 52.7833C336.547 52.7833 335.396 53.4107 333.932 54.6657C333.619 54.9794 333.462 55.2931 333.462 55.6069C333.566 55.9206 333.566 56.2343 333.462 56.5481C333.462 56.7572 333.462 56.9141 333.462 57.0187ZM351.344 50.4303C351.658 50.1165 352.077 49.9597 352.599 49.9597C353.122 49.9597 353.593 50.1688 354.011 50.5871C354.43 51.0055 354.534 51.4761 354.325 51.9989L352.756 55.45C351.606 57.8553 351.083 59.0579 351.188 59.0579L351.344 58.9011C351.344 58.7965 351.449 58.6396 351.658 58.4305C352.599 57.4893 353.75 56.3389 355.109 54.9794C356.573 53.5153 358.09 52.1558 359.658 50.9009C361.332 49.6459 362.953 48.6002 364.521 47.7636C366.194 46.8224 367.659 46.3518 368.913 46.3518C370.587 46.3518 371.789 46.9792 372.521 48.2342C373.358 49.3845 373.672 50.6917 373.463 52.1558C373.358 53.3062 373.097 54.0905 372.678 54.5088C372.26 54.9271 371.842 55.1363 371.423 55.1363C371.005 55.1363 370.639 54.9794 370.325 54.6657C369.802 54.0382 369.646 53.3584 369.855 52.6264C370.168 51.7898 370.221 51.11 370.012 50.5871C369.907 50.2734 369.593 50.1165 369.07 50.1165C367.711 50.1165 365.462 51.3192 362.325 53.7245C359.188 56.0252 355.946 59.1625 352.599 63.1364L346.795 70.1954C346.272 70.8229 345.697 71.1366 345.07 71.1366C344.338 71.1366 343.71 70.8752 343.187 70.3523C342.665 69.7248 342.508 69.0451 342.717 68.313C342.717 68.1039 343.187 67.1104 344.129 65.3326C344.965 63.4502 345.906 61.4109 346.952 59.2148C347.998 57.0187 348.991 55.0317 349.933 53.2539C350.769 51.4761 351.24 50.5349 351.344 50.4303Z" fill="white"/>
</svg>
